<svg width="32" height="32" viewBox="0 0 32 32" fill="none" xmlns="http://www.w3.org/2000/svg">
<path fill-rule="evenodd" clip-rule="evenodd" d="M1.77734 1.77783H30.2218V3.67117H29.3151V23.5823C29.3151 23.9558 29.2415 24.3257 29.0986 24.6708C28.9557 25.0159 28.7461 25.3295 28.482 25.5936C28.2179 25.8577 27.9043 26.0673 27.5592 26.2102C27.2141 26.3531 26.8442 26.4267 26.4707 26.4267H20.444V24.5334H26.4262C26.6785 24.5334 26.9204 24.4332 27.0988 24.2548C27.2771 24.0764 27.3773 23.8345 27.3773 23.5823V3.67117H4.62179V10.3112H2.72845V3.67117H1.77734V1.77783ZM21.6877 8.41797H14.1055V10.3113H21.6877V8.41797ZM11.7677 15.5288C11.7677 14.6849 11.5175 13.86 11.0486 13.1583C10.5798 12.4567 9.91346 11.9098 9.13383 11.5869C8.35419 11.2639 7.49631 11.1794 6.66866 11.3441C5.84101 11.5087 5.08076 11.9151 4.48405 12.5118C3.88735 13.1085 3.48099 13.8687 3.31636 14.6964C3.15173 15.524 3.23622 16.3819 3.55916 17.1615C3.88209 17.9412 4.42896 18.6075 5.13061 19.0764C5.83226 19.5452 6.65718 19.7954 7.50104 19.7954C8.63191 19.7931 9.71579 19.3428 10.5154 18.5431C11.3151 17.7435 11.7654 16.6596 11.7677 15.5288ZM5.12771 15.5288C5.12771 15.0594 5.2669 14.6005 5.52769 14.2102C5.78847 13.8199 6.15914 13.5157 6.59281 13.3361C7.02648 13.1564 7.50368 13.1094 7.96406 13.201C8.42444 13.2926 8.84733 13.5186 9.17924 13.8506C9.51116 14.1825 9.7372 14.6054 9.82877 15.0657C9.92035 15.5261 9.87335 16.0033 9.69372 16.437C9.51409 16.8707 9.20989 17.2413 8.8196 17.5021C8.4293 17.7629 7.97044 17.9021 7.50104 17.9021C7.18937 17.9021 6.88075 17.8407 6.59281 17.7214C6.30486 17.6022 6.04323 17.4273 5.82284 17.207C5.60246 16.9866 5.42764 16.7249 5.30837 16.437C5.1891 16.149 5.12771 15.8404 5.12771 15.5288ZM17.7773 19.3688C17.6809 19.1764 17.5219 19.0224 17.3266 18.932C17.1312 18.8415 16.9109 18.8201 16.7018 18.8711L9.77734 20.5955C9.39939 20.6898 9.01133 20.7376 8.62179 20.7377H5.5729C4.56626 20.7377 3.60084 21.1376 2.88904 21.8494C2.17723 22.5612 1.77734 23.5266 1.77734 24.5333V29.2711C1.77734 29.5233 1.87755 29.7652 2.05592 29.9436C2.23429 30.122 2.4762 30.2222 2.72845 30.2222H12.204C12.4563 30.2222 12.6982 30.122 12.8765 29.9436C13.0549 29.7652 13.1551 29.5233 13.1551 29.2711V26.4977C13.1537 26.3416 13.1912 26.1875 13.2641 26.0494C13.3371 25.9113 13.4432 25.7935 13.5729 25.7066L17.0218 23.4044C17.6415 22.9572 18.0656 22.2888 18.2062 21.5377C18.3469 20.7865 18.1933 20.01 17.7773 19.3688ZM15.9996 21.8222L12.5507 24.1244C12.16 24.3829 11.8394 24.7341 11.6176 25.1467C11.3958 25.5593 11.2796 26.0204 11.2796 26.4888V28.32H3.67068V24.5333C3.67301 24.0319 3.87324 23.5516 4.2278 23.1971C4.58237 22.8425 5.06259 22.6423 5.56401 22.64H8.65734C9.19959 22.6404 9.73987 22.5747 10.2662 22.4444L16.3818 20.9155C16.4085 21.0885 16.387 21.2655 16.3195 21.4271C16.2521 21.5886 16.1414 21.7284 15.9996 21.8311V21.8222ZM14.1055 13.1552H25.4832V15.0485H14.1055V13.1552Z" fill="#E41E25"/>
</svg>
