<svg width="32" height="32" viewBox="0 0 32 32" fill="none" xmlns="http://www.w3.org/2000/svg">
<path d="M29.6259 19.8538L25.9464 14.3522C25.8809 13.1916 25.6382 12.0574 25.2238 10.9768C25.0848 10.6143 24.7367 10.375 24.3484 10.375H23.3628V7.5C23.3628 6.98225 22.943 6.5625 22.4253 6.5625H21.211C21.1709 6.45962 21.1285 6.3575 21.0839 6.25631L21.9427 5.39756C22.3086 5.03181 22.3088 4.43775 21.9427 4.07175L19.291 1.42013C18.9249 1.05406 18.3313 1.05406 17.9652 1.42013L17.1065 2.27881C17.0053 2.23419 16.9032 2.19181 16.8003 2.15169V0.9375C16.8003 0.41975 16.3805 0 15.8628 0H12.1128C11.595 0 11.1753 0.41975 11.1753 0.9375V2.15175C11.0724 2.19187 10.9703 2.23425 10.8691 2.27881L10.0103 1.42013C9.64425 1.05406 9.05063 1.05406 8.6845 1.42013L6.03288 4.07169C5.667 4.43744 5.66675 5.0315 6.03288 5.3975L6.89163 6.25625C6.84707 6.35744 6.80469 6.45956 6.76463 6.56244H5.55032C5.03257 6.56244 4.61282 6.98219 4.61282 7.49994V10.3749H3.83157C3.44307 10.3749 3.09482 10.6146 2.95594 10.9774C0.70413 16.8631 3.72857 23.4846 9.71532 25.6091V31.0625C9.71532 31.5802 10.1351 32 10.6528 32H21.3403C21.8581 32 22.2778 31.5802 22.2778 31.0625V26.25H25.0278C25.5456 26.25 25.9653 25.8302 25.9653 25.3125V21.3125H28.8466C29.5944 21.3125 30.0421 20.4763 29.6259 19.8538ZM6.48782 8.4375H7.43675C7.85532 8.4375 8.22319 8.16006 8.33819 7.75756C8.46019 7.3305 8.63232 6.91569 8.84975 6.52475C9.05325 6.15881 8.98938 5.70225 8.69332 5.40625L8.02169 4.73462L9.3475 3.40881L10.0191 4.08038C10.3151 4.3765 10.7717 4.44038 11.1376 4.23681C11.5286 4.01937 11.9434 3.84731 12.3704 3.72531C12.7728 3.61037 13.0504 3.24244 13.0504 2.82387V1.875H14.9254V2.82394C14.9254 3.24256 15.2029 3.61044 15.6054 3.72537C16.0324 3.84731 16.4472 4.01944 16.8382 4.23688C17.2041 4.44031 17.6606 4.3765 17.9567 4.08044L18.6283 3.40887L19.9541 4.73469L19.2824 5.40625C18.9864 5.70231 18.9225 6.15881 19.126 6.52475C19.3434 6.91575 19.5155 7.3305 19.6375 7.7575C19.7524 8.15994 20.1204 8.4375 20.5389 8.4375H21.4879V10.375H17.6026C18.2628 7.98244 16.4548 5.625 13.9879 5.625C11.5368 5.625 9.70982 7.96344 10.3754 10.375H6.48788L6.48782 8.4375ZM12.4021 10.375C11.6181 9.13225 12.5128 7.5 13.9878 7.5C15.4623 7.5 16.3586 9.13369 15.5728 10.375H12.4021ZM25.0279 19.4375C24.5101 19.4375 24.0904 19.8573 24.0904 20.375V24.375H21.3404C20.8226 24.375 20.4029 24.7948 20.4029 25.3125V30.125H11.5904V24.9244C11.5904 24.5049 11.3117 24.1365 10.9081 24.0222C5.91769 22.6106 2.95 17.3079 4.49988 12.25H23.6806C23.922 13.0372 24.0576 13.8539 24.0846 14.6861C24.0999 15.1582 24.1708 14.9839 27.0918 19.4375H25.0279Z" fill="#E41E25"/>
</svg>
