<svg width="32" height="32" viewBox="0 0 32 32" fill="none" xmlns="http://www.w3.org/2000/svg">
<path d="M32 19.8125V2.8125C32 1.26169 30.7383 0 29.1875 0H2.8125C1.26169 0 0 1.26169 0 2.8125V17.9375C0 18.2426 0 30.9473 0 31.0625C0 31.5802 0.41975 32 0.9375 32C1.51456 32 31.2615 32 32 32V30.125C32 28.6235 31.3884 27.2067 30.2779 26.1356C29.8973 25.7686 29.4752 25.4604 29.0241 25.2126C29.7014 24.5338 30.125 23.6173 30.125 22.625C30.125 22.5714 30.1231 22.5182 30.1206 22.4652C31.2141 22.0794 32 21.0362 32 19.8125ZM3.75 30.125C3.75 28.0573 5.43225 26.375 7.5 26.375C9.56775 26.375 11.25 28.0573 11.25 30.125H3.75ZM5.625 22.625C5.625 21.5911 6.46613 20.75 7.5 20.75C8.53387 20.75 9.375 21.5911 9.375 22.625C9.375 23.6589 8.53387 24.5 7.5 24.5C6.46613 24.5 5.625 23.6589 5.625 22.625ZM12.1875 27.0193C11.6877 26.2674 11.0121 25.6423 10.2198 25.2027C10.8575 24.5301 11.25 23.6228 11.25 22.625C11.25 20.5573 9.56775 18.875 7.5 18.875C5.43225 18.875 3.75 20.5573 3.75 22.625C3.75 23.6228 4.1425 24.5301 4.78025 25.2027C3.04938 26.1629 1.875 28.0093 1.875 30.125C1.875 29.4601 1.875 18.4261 1.875 17.9375C1.875 15.3528 3.97781 13.25 6.5625 13.25H18.2236C18.6537 13.25 19.0287 12.9572 19.1331 12.5398L20.6527 6.46044C20.7778 5.96162 21.2832 5.64969 21.7903 5.77787C22.2915 5.90306 22.5973 6.41337 22.4721 6.91512L20.5972 14.4146C20.4927 14.8329 20.1186 15.125 19.6875 15.125H14.0625C13.5448 15.125 13.125 15.5448 13.125 16.0625C13.125 22.2972 13.1093 21.9217 13.1618 22.1056C13.0011 23.2598 13.3796 24.3847 14.1552 25.2027C13.3629 25.6423 12.6873 26.2674 12.1875 27.0193ZM5.625 8.5625C5.625 7.01169 6.88669 5.75 8.4375 5.75C9.98831 5.75 11.25 7.01169 11.25 8.5625C11.25 10.1133 9.98831 11.375 8.4375 11.375C6.88669 11.375 5.625 10.1133 5.625 8.5625ZM13.125 30.125C13.125 28.0573 14.8073 26.375 16.875 26.375C18.9427 26.375 20.625 28.0573 20.625 30.125H13.125ZM15 22.625C15 21.5911 15.8411 20.75 16.875 20.75C17.9089 20.75 18.75 21.5911 18.75 22.625C18.75 23.6589 17.9089 24.5 16.875 24.5C15.8411 24.5 15 23.6589 15 22.625ZM21.5625 27.0193C21.0627 26.2674 20.3871 25.6423 19.5947 25.2027C20.2325 24.5301 20.625 23.6228 20.625 22.625H22.5C22.5 23.6228 22.8925 24.5301 23.5303 25.2027C22.7379 25.6423 22.0623 26.2674 21.5625 27.0193ZM30.125 30.125H22.5C22.5 28.0573 24.1823 26.375 26.25 26.375C28.3504 26.375 30.125 28.0923 30.125 30.125ZM24.375 22.625C24.375 21.5911 25.2161 20.75 26.25 20.75C27.3154 20.75 28.25 21.6262 28.25 22.625C28.25 23.6238 27.3154 24.5 26.25 24.5C25.2161 24.5 24.375 23.6589 24.375 22.625ZM30.125 19.8125C30.125 20.2037 29.884 20.5393 29.5428 20.6796C28.8522 19.6066 27.6207 18.875 26.25 18.875C24.8651 18.875 23.6539 19.6302 23.0045 20.75H20.1205C19.4711 19.6302 18.2599 18.875 16.875 18.875C16.1922 18.875 15.5521 19.0593 15 19.3795V17H19.6875C20.9805 17 22.1027 16.1239 22.4163 14.8694L24.2913 7.3695C24.6669 5.8645 23.7488 4.33444 22.2475 3.95944C20.7444 3.57925 19.2132 4.492 18.8339 6.00513L17.4916 11.375H12.1849C12.7748 10.591 13.125 9.61694 13.125 8.5625C13.125 5.97781 11.0222 3.875 8.4375 3.875C5.85281 3.875 3.75 5.97781 3.75 8.5625C3.75 9.71919 4.172 10.7786 4.869 11.597C3.71569 11.9053 2.68669 12.5206 1.875 13.3497V2.8125C1.875 2.29556 2.29556 1.875 2.8125 1.875H29.1875C29.7044 1.875 30.125 2.29556 30.125 2.8125V19.8125Z" fill="#E41E25"/>
</svg>
