<svg width="32" height="32" viewBox="0 0 32 32" fill="none" xmlns="http://www.w3.org/2000/svg">
<path fill-rule="evenodd" clip-rule="evenodd" d="M31.9982 25.9812C31.9982 23.802 30.291 22.0146 28.1428 21.882C29.1413 21.3806 29.8286 20.3479 29.8286 19.157C29.8286 18.1015 29.2888 17.1699 28.4706 16.6225V5.4375C28.4706 4.91968 28.051 4.5 27.5331 4.5H4.46679C3.94897 4.5 3.52929 4.91968 3.52929 5.4375V16.6225C2.71118 17.1699 2.17138 18.1015 2.17138 19.157C2.17138 20.3476 2.85839 21.3803 3.85693 21.8818C1.708 22.0139 0 23.8015 0 25.9819L0.00048828 26.5041C0.000732423 26.7526 0.0996092 26.9912 0.275634 27.1669C0.451659 27.3422 0.689696 27.4406 0.937986 27.4406H0.939207L9.50828 27.4289C9.75706 27.4287 9.99583 27.3291 10.1714 27.1528C10.3469 26.9763 10.4453 26.7373 10.4443 26.4882L10.4426 25.9812C10.4426 23.802 8.73533 22.0146 6.58714 21.882C7.27147 21.5383 7.80907 20.9455 8.08006 20.2231H13.1421C13.4131 20.9455 13.9509 21.5383 14.6347 21.8818C12.4858 22.0139 10.7778 23.8015 10.7778 25.9819L10.7783 26.5041C10.7785 26.7526 10.8774 26.9912 11.0537 27.1669C11.2295 27.3422 11.4675 27.4406 11.7158 27.4406H11.7168L20.2858 27.4289C20.5349 27.4287 20.7736 27.3291 20.9492 27.1528C21.1247 26.9763 21.2231 26.7373 21.2221 26.4882L21.2204 25.9812C21.2204 23.802 19.5131 22.0146 17.365 21.882C18.049 21.5383 18.5869 20.9455 18.8579 20.2231H23.9199C24.1909 20.9455 24.7285 21.5383 25.4125 21.8818C23.2636 22.0139 21.5556 23.8015 21.5556 25.9819L21.5561 26.5041C21.5564 26.7526 21.6552 26.9912 21.8315 27.1669C22.0073 27.3422 22.2453 27.4406 22.4936 27.4406H22.4948L31.0639 27.4289C31.3129 27.4287 31.5514 27.3291 31.727 27.1528C31.9028 26.9763 32.0009 26.737 31.9999 26.488L31.9982 25.9812ZM25.6674 23.748H27.8864C28.9733 23.748 29.8815 24.5258 30.082 25.5551L23.4697 25.5644C23.6657 24.5317 24.5766 23.748 25.6674 23.748ZM25.602 19.157C25.602 18.51 26.1293 17.9839 26.7778 17.9839C27.4262 17.9839 27.9536 18.51 27.9536 19.157C27.9536 19.8039 27.4262 20.3303 26.7778 20.3303C26.1293 20.3303 25.602 19.8039 25.602 19.157ZM18.9409 18.3481C18.5854 17.0588 17.4021 16.1086 16 16.1086C14.5979 16.1086 13.4148 17.0588 13.0591 18.3481H8.16307C7.82298 17.115 6.72582 16.1928 5.40429 16.1145V6.375H26.5956V16.1147C25.2741 16.1928 24.177 17.115 23.8369 18.3481H18.9409ZM16 20.3303C15.3515 20.3303 14.8242 19.8039 14.8242 19.157C14.8242 18.51 15.3515 17.9839 16 17.9839C16.6484 17.9839 17.1757 18.51 17.1757 19.157C17.1757 19.8039 16.6484 20.3303 16 20.3303ZM5.22216 20.3303C4.57372 20.3303 4.04638 19.8039 4.04638 19.157C4.04638 18.51 4.57372 17.9839 5.22216 17.9839C5.87059 17.9839 6.39794 18.51 6.39794 19.157C6.39794 19.8039 5.87059 20.3303 5.22216 20.3303ZM1.91406 25.5644C2.1101 24.5317 3.02099 23.748 4.11181 23.748H6.3308C7.41771 23.748 8.32591 24.5258 8.52635 25.5551L1.91406 25.5644ZM12.6919 25.5644C12.8879 24.5317 13.7988 23.748 14.8896 23.748H17.1086C18.1955 23.748 19.1037 24.5258 19.3042 25.5551L12.6919 25.5644ZM13.1211 10.8369H18.8779C19.3957 10.8369 19.8154 10.417 19.8154 9.89941C19.8154 9.38159 19.3957 8.96191 18.8779 8.96191H13.1211C12.6033 8.96191 12.1836 9.38159 12.1836 9.89941C12.1836 10.417 12.6033 10.8369 13.1211 10.8369ZM8.49219 12.3369H23.5102C24.028 12.3369 24.448 12.7566 24.448 13.2744C24.448 13.792 24.028 14.2119 23.5105 14.2119H8.49219C7.97436 14.2119 7.55469 13.792 7.55469 13.2744C7.55469 12.7566 7.97436 12.3369 8.49219 12.3369Z" fill="#E41E25"/>
</svg>
