<svg width="32" height="32" viewBox="0 0 32 32" fill="none" xmlns="http://www.w3.org/2000/svg">
<path fill-rule="evenodd" clip-rule="evenodd" d="M25.5 10.4375V28.25H27.375V1.875H8.625V3.875H18.9336H18.9375C19.1861 3.875 19.4246 3.97377 19.6004 4.14959L25.2254 9.77459C25.4012 9.9504 25.5 10.1889 25.5 10.4375ZM28.3125 30.125H25.5V31.0625C25.5 31.5803 25.0803 32 24.5625 32H3.9375C3.41973 32 3 31.5803 3 31.0625V4.8125C3 4.29473 3.41973 3.875 3.9375 3.875H6.75V0.9375C6.75 0.419733 7.16973 0 7.6875 0H28.3125C28.8303 0 29.25 0.419733 29.25 0.9375V29.1875C29.25 29.7053 28.8303 30.125 28.3125 30.125ZM4.875 5.75H7.68559L7.6875 5.75L7.68941 5.75H17.9961V10.4375C17.9961 10.9553 18.4158 11.375 18.9336 11.375H23.625V29.1875V30.125H4.875V5.75ZM22.2992 9.5H19.8711V7.07192L22.2992 9.5ZM13.9715 9.22541L10.2215 12.9754C9.85539 13.3415 9.2618 13.3415 8.89568 12.9754L7.02068 11.1004C6.65456 10.7343 6.65456 10.1407 7.02068 9.77459C7.3868 9.40847 7.98039 9.40847 8.34651 9.77459L9.55859 10.9867L12.6457 7.89959C13.0118 7.53347 13.6054 7.53347 13.9715 7.89959C14.3376 8.2657 14.3376 8.85929 13.9715 9.22541ZM8.89568 20.4754C9.2618 20.8415 9.85539 20.8415 10.2215 20.4754L13.9715 16.7254C14.3376 16.3593 14.3376 15.7657 13.9715 15.3996C13.6054 15.0335 13.0118 15.0335 12.6457 15.3996L9.55859 18.4867L8.34651 17.2746C7.98039 16.9085 7.3868 16.9085 7.02068 17.2746C6.65456 17.6407 6.65456 18.2343 7.02068 18.6004L8.89568 20.4754ZM13.9715 24.2254L10.2215 27.9754C9.85539 28.3415 9.2618 28.3415 8.89568 27.9754L7.02068 26.1004C6.65456 25.7343 6.65456 25.1407 7.02068 24.7746C7.3868 24.4085 7.98039 24.4085 8.34651 24.7746L9.55859 25.9867L12.6457 22.8996C13.0118 22.5335 13.6054 22.5335 13.9715 22.8996C14.3376 23.2657 14.3376 23.8593 13.9715 24.2254ZM14.2461 19.8125C14.2461 20.3303 14.6658 20.75 15.1836 20.75H20.8086C21.3264 20.75 21.7461 20.3303 21.7461 19.8125C21.7461 19.2947 21.3264 18.875 20.8086 18.875H15.1836C14.6658 18.875 14.2461 19.2947 14.2461 19.8125ZM17.0586 17C16.5408 17 16.1211 16.5803 16.1211 16.0625C16.1211 15.5447 16.5408 15.125 17.0586 15.125H20.8086C21.3264 15.125 21.7461 15.5447 21.7461 16.0625C21.7461 16.5803 21.3264 17 20.8086 17H17.0586ZM14.2461 27.3125C14.2461 27.8303 14.6658 28.25 15.1836 28.25H20.8086C21.3264 28.25 21.7461 27.8303 21.7461 27.3125C21.7461 26.7947 21.3264 26.375 20.8086 26.375H15.1836C14.6658 26.375 14.2461 26.7947 14.2461 27.3125ZM17.0586 24.5C16.5408 24.5 16.1211 24.0803 16.1211 23.5625C16.1211 23.0447 16.5408 22.625 17.0586 22.625H20.8086C21.3264 22.625 21.7461 23.0447 21.7461 23.5625C21.7461 24.0803 21.3264 24.5 20.8086 24.5H17.0586Z" fill="#E41E25"/>
</svg>
