<svg width="32" height="32" viewBox="0 0 32 32" fill="none" xmlns="http://www.w3.org/2000/svg">
<g clip-path="url(#clip0_5_487)">
<path fill-rule="evenodd" clip-rule="evenodd" d="M0.917969 16.0007C0.917969 7.68252 7.68447 0.916016 16.0027 0.916016C24.3209 0.916016 31.0874 7.68252 31.0874 16.0007C31.0874 24.319 24.3209 31.0855 16.0027 31.0855C7.68447 31.0855 0.917969 24.319 0.917969 16.0007ZM3.25486 16.0007C3.25486 23.029 8.97445 28.7486 16.0027 28.7486C23.0309 28.7486 28.7505 23.029 28.7505 16.0007C28.7505 8.9725 23.0321 3.25291 16.0027 3.25291C8.97445 3.25291 3.25486 8.9725 3.25486 16.0007ZM17.1651 15.5094L21.3715 18.6642C21.888 19.051 21.9932 19.7836 21.6052 20.2989C21.3761 20.6074 21.0256 20.7675 20.6692 20.7675C20.425 20.7675 20.1796 20.6915 19.9693 20.5338L15.2955 17.0284C15.0011 16.8088 14.8281 16.4617 14.8281 16.0937V9.08291C14.8281 8.43674 15.3504 7.91443 15.9966 7.91443C16.6428 7.91443 17.1651 8.43674 17.1651 9.08291V15.5094Z" fill="#E41E25"/>
</g>
<defs>
<clipPath id="clip0_5_487">
<rect width="32" height="32" fill="white"/>
</clipPath>
</defs>
</svg>
