<svg width="32" height="32" viewBox="0 0 32 32" fill="none" xmlns="http://www.w3.org/2000/svg">
<g clip-path="url(#clip0_5_473)">
<path fill-rule="evenodd" clip-rule="evenodd" d="M19.242 2.69043C19.1745 2.17708 18.7037 1.81563 18.1903 1.8831C17.677 1.95058 17.3155 2.42143 17.383 2.93478L18.5253 11.6251H18C17.7331 11.6251 17.4788 11.7389 17.3009 11.9379C17.1231 12.137 17.0385 12.4024 17.0684 12.6677L17.4372 15.9376H9.66063H2.9375H0.9375C0.419733 15.9376 0 16.3573 0 16.8751C0 17.3929 0.419733 17.8126 0.9375 17.8126H2V20.7501H0.9375C0.419733 20.7501 0 21.1698 0 21.6876C0 22.2053 0.419548 22.6249 0.937161 22.6251C0.3487 23.4085 0 24.3824 0 25.4376C0 28.0264 2.09867 30.1251 4.6875 30.1251H19.875H23.0625H29.1875C29.6646 30.1251 30.0656 29.7668 30.1191 29.2927L31.9941 12.6677C32.024 12.4024 31.9394 12.137 31.7616 11.9379C31.5837 11.7389 31.3294 11.6251 31.0625 11.6251H30.5383L31.6806 2.93478C31.7481 2.42143 31.3866 1.95058 30.8733 1.8831C30.3599 1.81563 29.8891 2.17708 29.8216 2.69043L28.6472 11.6251H27.3438V6.56261V2.81261C27.3438 2.29484 26.924 1.87511 26.4062 1.87511H22.6562C22.1385 1.87511 21.7188 2.29484 21.7188 2.81261V6.56261V11.6251H20.4164L19.242 2.69043ZM3.875 20.7501H4.6875H17.98L17.6487 17.8126H9.66063H3.875V20.7501ZM19.9604 21.5768C19.9611 21.5826 19.9617 21.5884 19.9623 21.5941L19.9634 21.6059L20.7127 28.2501H23.0625H28.3498L30.0133 13.5001H26.4062H22.6562H19.0492L19.9578 21.557L19.9588 21.564C19.9594 21.5683 19.9599 21.5726 19.9604 21.5768ZM18.1914 22.6251H4.6875C3.1342 22.6251 1.875 23.8843 1.875 25.4376C1.875 26.9909 3.1342 28.2501 4.6875 28.2501H18.8258L18.6144 26.3751H4.6875C4.16973 26.3751 3.75 25.9554 3.75 25.4376C3.75 24.9198 4.16973 24.5001 4.6875 24.5001H18.4029L18.1914 22.6251ZM25.4688 3.75011V5.62511H23.5938V3.75011H25.4688ZM25.4688 7.50011H23.5938V11.6251H25.4688V7.50011Z" fill="#E41E25"/>
</g>
<defs>
<clipPath id="clip0_5_473">
<rect width="32" height="32" fill="white"/>
</clipPath>
</defs>
</svg>
