<svg width="32" height="32" viewBox="0 0 32 32" fill="none" xmlns="http://www.w3.org/2000/svg">
<g clip-path="url(#clip0_5_579)">
<mask id="mask0_5_579" style="mask-type:luminance" maskUnits="userSpaceOnUse" x="0" y="0" width="32" height="32">
<path d="M32 0H0V32H32V0Z" fill="white"/>
</mask>
<g mask="url(#mask0_5_579)">
<mask id="mask1_5_579" style="mask-type:luminance" maskUnits="userSpaceOnUse" x="0" y="0" width="32" height="32">
<path d="M0 1.90735e-06H32V32H0V1.90735e-06Z" fill="white"/>
</mask>
<g mask="url(#mask1_5_579)">
<path fill-rule="evenodd" clip-rule="evenodd" d="M6.19507 32.063H7.19507H11.6248H12.6248V31.063V22.2701C12.6248 20.6715 11.3288 19.3755 9.73013 19.3755H7.73413V16.2514C7.73413 15.2242 7.33686 14.2898 6.68758 13.5934C7.81362 12.8165 8.55157 11.5173 8.55157 10.0457C8.55157 7.66692 6.62322 5.73859 4.24438 5.73859C1.8656 5.73859 -0.0627441 7.66693 -0.0627441 10.0457C-0.0627441 11.3138 0.485206 12.4538 1.35725 13.242C0.490076 13.957 -0.0627441 15.0396 -0.0627441 16.2514V20.3755V24.8052V25.8052H0.937256H6.19507V31.063V32.063ZM8.19507 30.063V24.8052V23.8052H7.19507H1.93726V20.3755V16.2514C1.93726 15.2029 2.78721 14.3529 3.83569 14.3529C4.88417 14.3529 5.73413 15.2029 5.73413 16.2514V20.3755V21.3755H6.73413H9.73013C10.2242 21.3755 10.6248 21.776 10.6248 22.2701V30.063H8.19507ZM4.24438 12.3529C2.97019 12.3529 1.93726 11.32 1.93726 10.0457C1.93726 8.7715 2.97017 7.73859 4.24438 7.73859C5.51867 7.73859 6.55157 8.77151 6.55157 10.0457C6.55157 11.3199 5.51865 12.3529 4.24438 12.3529ZM25.449 10.0455C25.449 11.3197 26.4819 12.3527 27.7562 12.3527C29.0304 12.3527 30.0633 11.3197 30.0633 10.0455C30.0633 8.77126 29.0304 7.73835 27.7562 7.73835C26.4819 7.73835 25.449 8.77127 25.449 10.0455ZM32.0623 16.2514C32.0623 15.0398 31.5096 13.9574 30.6427 13.2424C31.5151 12.4541 32.0633 11.3138 32.0633 10.0455C32.0633 7.66669 30.1349 5.73835 27.7562 5.73835C25.3773 5.73835 23.449 7.66668 23.449 10.0455C23.449 11.5168 24.1867 12.8158 25.3125 13.5928C24.6629 14.2892 24.2654 15.2239 24.2654 16.2514V19.3755H22.2694C20.6707 19.3755 19.3748 20.6715 19.3748 22.2701V31.063V32.063H20.3748H24.8044H25.8044V31.063V25.8052H31.0623H32.0623V24.8052V20.3755V16.2514ZM21.3748 30.063V22.2701C21.3748 21.776 21.7753 21.3755 22.2694 21.3755H25.2654H26.2654V20.3755V16.2514C26.2654 15.2029 27.1153 14.3529 28.1638 14.3529C29.2123 14.3529 30.0623 15.2029 30.0623 16.2514V20.3755V23.8052H24.8044H23.8044V24.8052V30.063H21.3748ZM16.8658 12.7177L15.9998 14.2176L15.1337 12.7177L13.7452 10.3127H12.6456C11.1498 10.3127 9.93726 9.10016 9.93726 7.60434V2.64603C9.93726 1.15024 11.1498 -0.0622864 12.6456 -0.0622864H19.3539C20.8497 -0.0622864 22.0623 1.15024 22.0623 2.64603V7.60434C22.0623 9.10016 20.8498 10.3127 19.3539 10.3127H18.2543L16.8658 12.7177ZM15.1886 8.81271L15.9998 10.2177L16.8109 8.81271L17.0996 8.31271H17.6769H19.3539C19.7451 8.31271 20.0623 7.99564 20.0623 7.60434V2.64603C20.0623 2.25481 19.7452 1.93771 19.3539 1.93771H12.6456C12.2544 1.93771 11.9373 2.25481 11.9373 2.64603V7.60434C11.9373 7.99564 12.2544 8.31271 12.6456 8.31271H14.3226H14.8999L15.1886 8.81271Z" fill="#E41E25"/>
</g>
</g>
</g>
<defs>
<clipPath id="clip0_5_579">
<rect width="32" height="32" fill="white"/>
</clipPath>
</defs>
</svg>
