<svg width="32" height="32" viewBox="0 0 32 32" fill="none" xmlns="http://www.w3.org/2000/svg">
<path fill-rule="evenodd" clip-rule="evenodd" d="M2.91882 8.24518C3.42733 6.5171 4.48202 5.00027 5.92491 3.92183C8.76165 1.69672 11.4137 0.77432 14.5161 0.932886C16.1521 1.04584 17.7776 1.27807 19.3798 1.62772C21.6484 2.08439 23.2958 2.88181 24.4174 4.06572C25.3068 5.01276 25.9932 6.13156 26.4346 7.35342C26.6211 7.88886 26.7729 8.43568 26.8894 8.99051L26.9316 9.17247C27.0373 9.56344 27.18 9.94344 27.3578 10.3072C27.4624 10.5405 27.5665 10.774 27.6558 11.0114C27.772 11.2774 27.8186 11.5686 27.7914 11.8577C27.6893 12.3071 27.4289 12.7048 27.0578 12.9779C26.8113 13.2038 26.6492 13.3624 26.6478 13.5068C26.6673 13.582 26.6968 13.6542 26.7357 13.7214C27.3379 14.9907 28.0758 16.1911 28.9365 17.3015C29.2974 17.7422 29.676 18.2563 29.5994 18.7798C29.4899 19.1763 29.2279 19.5134 28.8707 19.7174C28.7045 19.833 28.5291 19.9347 28.3463 20.0216C28.1292 20.1321 27.7659 20.3175 27.7408 20.4499C27.7077 20.6197 27.7269 20.7955 27.7958 20.9541C27.8677 21.1056 27.9422 21.2372 28.0073 21.3522L28.0073 21.3522L28.0149 21.3656L28.0152 21.3662C28.1998 21.6928 28.5086 22.2389 28.0424 22.6298C27.9338 22.7258 27.7482 22.8716 27.5784 23.0015C27.7042 23.2224 27.7606 23.4762 27.7404 23.7296C27.7132 23.9264 27.6061 24.1032 27.4443 24.2185C27.3319 24.2983 27.2115 24.3677 27.0922 24.436C26.7966 24.6045 26.6812 24.683 26.6415 24.8399C26.6151 25.0447 26.6336 25.2527 26.696 25.4495C26.725 25.5814 26.7534 25.7132 26.7711 25.8448C26.8216 26.3021 26.7639 26.765 26.6026 27.1959C26.3417 28.1506 25.3795 28.7345 24.4121 28.5251C22.9763 28.1789 21.5602 27.7554 20.1701 27.2565C19.0397 27.9241 18.3257 29.9445 18.1397 30.7021C18.0841 30.9269 17.8826 31.0849 17.6511 31.0851H4.9381C4.77871 31.0851 4.62874 31.0095 4.53393 30.8813C4.43912 30.7532 4.41072 30.5876 4.45733 30.4353C4.59162 30.0809 4.78283 29.7508 5.02354 29.4581C5.15983 29.2843 5.28104 29.0993 5.38592 28.9049C5.61249 28.441 5.8024 27.9601 5.95407 27.4667C6.24157 26.4956 6.43991 25.5003 6.54674 24.4933C6.72451 22.9896 6.49753 21.4658 5.88926 20.0793C5.51703 19.312 5.05913 18.5892 4.52415 17.9249C4.22022 17.5161 3.90645 17.0933 3.62361 16.6475C2.8299 15.4145 2.40311 13.9812 2.39309 12.5149C2.36286 11.0738 2.53993 9.63591 2.91882 8.24518ZM3.39858 12.5007C3.40706 13.7813 3.77988 15.033 4.47348 16.1096C4.73616 16.5235 5.03862 16.9311 5.3313 17.3254C5.91194 18.0507 6.40832 18.8396 6.81078 19.677C7.49088 21.2279 7.74438 22.9324 7.54492 24.6142C7.43113 25.681 7.22024 26.7352 6.9149 27.7637C6.7482 28.3056 6.53972 28.8337 6.2913 29.3433C6.16072 29.5927 6.00805 29.8298 5.8351 30.0519C5.82821 30.061 5.82137 30.0703 5.81501 30.0796H17.2703C17.6052 28.8862 18.212 27.7867 19.043 26.867C18.9114 26.8211 18.7866 26.7774 18.6707 26.7366L18.6018 26.7125L18.6017 26.7124C18.2594 26.5926 18.0014 26.5023 17.8674 26.4602C15.7118 25.7835 14.6335 24.8039 14.6629 23.5483C14.6694 23.2706 14.8999 23.0507 15.1775 23.0573C15.4552 23.0638 15.6751 23.2942 15.6685 23.5718C15.6563 24.0899 16.08 24.8451 18.1694 25.5009C18.3177 25.5478 18.6128 25.6507 19.0032 25.7877C19.3636 25.9139 19.8075 26.0693 20.2932 26.2353L20.2961 26.2363C21.7115 26.7485 23.1535 27.1839 24.6157 27.5405C25.0867 27.6319 25.5453 27.3336 25.6528 26.866C25.7617 26.5836 25.8032 26.2797 25.7741 25.9784C25.761 25.8791 25.7389 25.7798 25.7169 25.6804L25.7137 25.6661C25.6106 25.3173 25.5945 24.9485 25.667 24.592C25.8111 24.1302 26.1495 23.7543 26.5936 23.5625L26.6019 23.5578C26.635 23.539 26.6685 23.5199 26.7011 23.5007C26.6475 23.3907 26.583 23.2863 26.5086 23.1891C26.4248 23.0823 26.3878 22.9461 26.406 22.8115C26.4242 22.677 26.4961 22.5555 26.6053 22.4749C26.7261 22.3857 27.0134 22.1704 27.2201 22.0054C27.1946 21.9585 27.1656 21.9072 27.1391 21.8608C27.062 21.7243 26.9736 21.5669 26.8876 21.3865C26.7267 21.0347 26.6795 20.6415 26.7526 20.2617C26.8699 19.6457 27.4584 19.3454 27.8884 19.1259L27.8894 19.1255C28.0351 19.0565 28.1749 18.9755 28.3072 18.8834C28.4117 18.8109 28.5107 18.7307 28.6033 18.6435C28.6019 18.5679 28.5233 18.384 28.1364 17.9119C27.2377 16.7535 26.4674 15.501 25.8388 14.1765C25.7178 13.969 25.6501 13.7348 25.6419 13.4947C25.693 12.9881 25.9618 12.5289 26.3784 12.2362C26.5817 12.0501 26.7737 11.8743 26.7953 11.7201C26.7934 11.598 26.766 11.4775 26.7148 11.3666C26.6376 11.1615 26.548 10.9606 26.4584 10.7597L26.4398 10.7179C26.2347 10.2958 26.0714 9.85446 25.9522 9.40045L25.9094 9.21708C25.8025 8.70361 25.6628 8.19757 25.4911 7.70195C25.0966 6.60784 24.4829 5.60577 23.6875 4.7572C22.7133 3.72897 21.2392 3.02777 19.1813 2.61359C17.6274 2.27407 16.051 2.04791 14.4644 1.93696C11.6183 1.79383 9.17689 2.64824 6.54438 4.71354C5.2653 5.65704 4.33135 6.99433 3.88588 8.52006C3.53399 9.81681 3.36976 11.1573 3.39858 12.5007ZM7.34722 9.26579H8.10541C8.18962 8.97964 8.30421 8.70331 8.44718 8.44156L7.91076 7.90514C7.78541 7.77983 7.76793 7.5827 7.86932 7.43729C8.2209 6.93284 8.65909 6.49469 9.16354 6.14307C9.30878 6.04133 9.50617 6.05873 9.63139 6.18429L10.1678 6.72071C10.4297 6.5777 10.7062 6.46311 10.9924 6.37894V5.62062C10.9925 5.4435 11.1195 5.29188 11.2938 5.26064C11.8994 5.15384 12.5189 5.15384 13.1245 5.26064C13.2988 5.29188 13.4258 5.4435 13.4259 5.62062V6.37898C13.7121 6.46315 13.9886 6.57775 14.2505 6.72075L14.7869 6.18434C14.9121 6.05877 15.1095 6.04137 15.2547 6.14311C15.7592 6.49469 16.1974 6.93289 16.549 7.43733C16.6504 7.5827 16.6329 7.77987 16.5075 7.90518L15.9711 8.4416C16.1141 8.70336 16.2287 8.97969 16.3129 9.26583H17.071C17.2482 9.26579 17.3999 9.39281 17.431 9.56723C17.5386 10.1728 17.5386 10.7926 17.431 11.3982C17.3999 11.5726 17.2482 11.6997 17.071 11.6996H16.3128C16.2286 11.9858 16.114 12.2621 15.9711 12.5238L16.5075 13.0603C16.6328 13.1856 16.6503 13.3827 16.5489 13.5281C16.1973 14.0326 15.7592 14.4707 15.2547 14.8223C15.1093 14.9236 14.9123 14.9062 14.7869 14.7811L14.2504 14.2447C13.9886 14.3877 13.7121 14.5023 13.4258 14.5865V15.3448C13.4257 15.5219 13.2988 15.6736 13.1244 15.7048C12.5189 15.8122 11.8993 15.8122 11.2938 15.7048C11.1194 15.6736 10.9925 15.5219 10.9924 15.3448V14.5865C10.7061 14.5023 10.4297 14.3877 10.1678 14.2447L9.63135 14.7811C9.50595 14.9062 9.3089 14.9236 9.1635 14.8223C8.65905 14.4707 8.22086 14.0326 7.86928 13.5281C7.76788 13.3827 7.78532 13.1856 7.91072 13.0603L8.44713 12.5238C8.30417 12.262 8.18958 11.9858 8.10537 11.6996H7.34717C7.17001 11.6997 7.0183 11.5726 6.98719 11.3982C6.87958 10.7926 6.87958 10.1728 6.98719 9.56723C7.01835 9.39281 7.17005 9.26579 7.34722 9.26579ZM7.66396 10.9682H8.38898C8.5607 10.9682 8.70928 11.0877 8.74609 11.2554C8.83377 11.6564 8.99221 12.0386 9.21394 12.3841C9.30715 12.5287 9.28679 12.7188 9.165 12.8403L8.65181 13.3535C8.85511 13.6065 9.08529 13.8366 9.33822 14.0399L9.85141 13.5269C9.97294 13.4053 10.1628 13.3848 10.3075 13.4776C10.6531 13.6996 11.0354 13.8581 11.4367 13.9458C11.6044 13.9827 11.7238 14.1312 11.7238 14.3029V15.0279C12.0464 15.0625 12.3719 15.0625 12.6945 15.0279V14.3029C12.6945 14.1312 12.8139 13.9827 12.9816 13.9458C13.3829 13.8581 13.7653 13.6996 14.1109 13.4776C14.2555 13.3844 14.4456 13.405 14.5669 13.5269L15.0801 14.0399C15.3331 13.8366 15.5632 13.6064 15.7665 13.3535L15.2533 12.8403C15.1316 12.7188 15.1112 12.5287 15.2044 12.3841C15.4261 12.0386 15.5846 11.6564 15.6722 11.2554C15.7091 11.0877 15.8577 10.9682 16.0294 10.9682H16.7543C16.789 10.6455 16.789 10.32 16.7543 9.99724H16.0293C15.8576 9.99728 15.709 9.8778 15.6722 9.71011C15.5845 9.30907 15.4261 8.92689 15.2043 8.58139C15.1111 8.4368 15.1315 8.24674 15.2533 8.12516L15.7665 7.61197C15.5632 7.35899 15.333 7.12886 15.0801 6.92556L14.5669 7.43858C14.4455 7.56045 14.2555 7.58103 14.1108 7.48786C13.7652 7.26587 13.3828 7.10735 12.9816 7.01967C12.8139 6.98277 12.6945 6.83423 12.6945 6.66256V5.93758C12.3718 5.90295 12.0464 5.90295 11.7238 5.93758V6.66256C11.7238 6.83423 11.6044 6.98281 11.4367 7.01967C11.0354 7.10735 10.653 7.26587 10.3074 7.48786C10.1627 7.58064 9.97295 7.56011 9.85137 7.43858L9.33818 6.92556C9.0852 7.12886 8.85507 7.35904 8.65177 7.61197L9.16496 8.12516C9.28671 8.24669 9.30711 8.43676 9.2139 8.58139C8.99216 8.92685 8.83373 9.30907 8.74605 9.71011C8.70923 9.8778 8.56061 9.99728 8.38894 9.99724H7.66396C7.6292 10.3199 7.6292 10.6455 7.66396 10.9682ZM14.5859 10.4828C14.5859 9.16993 13.5217 8.10571 12.2089 8.10571C10.8961 8.10571 9.83186 9.16993 9.83186 10.4828C9.83186 11.7956 10.8961 12.8598 12.2089 12.8598C13.5211 12.8583 14.5844 11.7949 14.5859 10.4828ZM13.8545 10.4827C13.8545 11.3916 13.1178 12.1283 12.2089 12.1283C11.3 12.1283 10.5633 11.3916 10.5633 10.4827C10.5633 9.57384 11.3 8.83708 12.2089 8.83708C13.1173 8.83806 13.8535 9.57427 13.8545 10.4827Z" fill="#E41E25"/>
</svg>
